<svg width="44" height="44" viewBox="0 0 44 44" fill="none" xmlns="http://www.w3.org/2000/svg">
<rect width="44" height="44" rx="8" fill="#717171"/>
<path d="M21.9993 8.66602C14.6393 8.66602 8.66602 14.6393 8.66602 21.9993C8.66602 29.3593 14.6393 35.3327 21.9993 35.3327C29.3593 35.3327 35.3327 29.3593 35.3327 21.9993C35.3327 14.6393 29.3593 8.66602 21.9993 8.66602ZM11.3327 21.9993C11.3327 21.186 11.4393 20.386 11.6127 19.626L17.986 25.9993V27.3327C17.986 28.7993 19.186 29.9993 20.6527 29.9993V32.5727C15.4127 31.906 11.3327 27.426 11.3327 21.9993ZM29.8527 29.1993C29.506 28.1193 28.5193 27.3327 27.3193 27.3327H25.986V23.3327C25.986 22.5993 25.386 21.9993 24.6527 21.9993H16.6527V19.3327H19.3193C20.0527 19.3327 20.6527 18.7327 20.6527 17.9993V15.3327H23.3193C24.786 15.3327 25.986 14.1327 25.986 12.666V12.1193C29.8927 13.6927 32.666 17.5327 32.666 21.9993C32.666 24.7727 31.586 27.306 29.8527 29.1993Z" fill="white"/>
</svg>
