<svg width="32" height="33" viewBox="0 0 32 33" fill="none" xmlns="http://www.w3.org/2000/svg">
<path fill-rule="evenodd" clip-rule="evenodd" d="M3.58378 10.5647C3.58378 5.85475 7.51966 2.04787 12.2805 2.04787C17.0548 2.04787 20.9907 5.85475 20.9907 10.5647C20.9907 12.9381 20.1275 15.1416 18.7068 17.0092C17.1395 19.0693 15.2077 20.8642 13.0332 22.2731C12.5355 22.5987 12.0864 22.6233 11.5402 22.2731C9.35338 20.8642 7.42158 19.0693 5.86767 17.0092C4.44591 15.1416 3.58378 12.9381 3.58378 10.5647ZM9.41341 10.8304C9.41341 12.4083 10.7009 13.6493 12.2796 13.6493C13.8594 13.6493 15.1593 12.4083 15.1593 10.8304C15.1593 9.26489 13.8594 7.9635 12.2796 7.9635C10.7009 7.9635 9.41341 9.26489 9.41341 10.8304Z" fill="black"/>
</svg>
